<svg id="Layer_1" data-name="Layer 1" xmlns="http://www.w3.org/2000/svg" viewBox="0 0 2000 400"><defs><style>.cls-1{fill:#0d5e9d;}</style></defs><path class="cls-1" d="M443.7,114.3a10.4,10.4,0,0,1,3.4,8.1,10.6,10.6,0,0,1-2.1,6.3,10,10,0,0,1-4.7,3.8c-1.1.3-3.4.8-11.3.8L318.7,357.9h2c4.8,0,8.2,1,10.4,3a10.2,10.2,0,0,1,3.5,8,10.4,10.4,0,0,1-3.4,7.8c-2.3,2.1-5.7,3.1-10.5,3.1H291.1c-4.7,0-8.2-1-10.4-2.9a10.5,10.5,0,0,1-3.5-8,10.2,10.2,0,0,1,3.5-8c2.2-2,5.6-3,10.4-3h4l30.2-61.7L244,133.3h-4c-4.8,0-8.3-1-10.5-3.1a9.9,9.9,0,0,1-3.4-7.8,10.8,10.8,0,0,1,1.7-6.1,9.7,9.7,0,0,1,4.5-4,21.3,21.3,0,0,1,7.7-1.1h29.9c4.8,0,8.2,1,10.5,3.1a10.8,10.8,0,0,1,3.4,8.1,10.4,10.4,0,0,1-3.4,7.8c-2.3,2.1-5.7,3.1-10.5,3.1H268l69.1,138.8,68.1-138.8h-2.1c-4.8,0-8.3-1-10.5-3.1a11,11,0,0,1,0-15.9c2.2-2.1,5.7-3.1,10.5-3.1H433C438,111.2,441.5,112.2,443.7,114.3Zm216.8,38a95,95,0,0,1,12.4,47c0,25.9-9.4,48.4-27.9,66.8s-41.7,27.7-68.8,27.7c-30.2,0-55.4-11.7-75-34.8v98.9h3.2c4.8,0,8.2,1,10.5,3a10.9,10.9,0,0,1,0,15.8c-2.2,2.1-5.7,3.1-10.5,3.1H476.1c-4.8,0-8.2-1-10.5-2.9a10.4,10.4,0,0,1-3.4-8,10.1,10.1,0,0,1,3.4-8c2.3-2,5.7-3,10.5-3h3.2V133.3h-3.2c-4.8,0-8.3-1-10.5-3.1a11,11,0,0,1,0-15.9c2.2-2.1,5.7-3.1,10.5-3.1h25.1V140c9.7-10.9,20.1-19.3,31-25.2s27.1-9.9,43.8-9.9a101,101,0,0,1,49.4,12.5A88.6,88.6,0,0,1,660.5,152.3Zm-31.3-4c-14.4-14.2-32.2-21.3-53-21.3s-38.8,7.2-53.2,21.4-21.8,31.3-21.8,50.9,7.3,36.9,21.8,51.1,32.3,21.3,53.2,21.3,38.4-7.1,52.9-21.2,21.7-31.4,21.7-51.2S643.5,162.4,629.2,148.3Zm127.9,131c-2.3-1.9-5.8-2.9-10.7-2.9h-3V111.2H718.5c-4.9,0-8.4,1-10.7,3.1a10.8,10.8,0,0,0-3.4,8.1,10.2,10.2,0,0,0,3.6,7.9c2.3,2,5.7,3,10.5,3h3V276.4h-3.2c-4.8,0-8.2,1-10.4,2.9a10.9,10.9,0,0,0-.1,15.9c2.3,2.1,5.7,3.1,10.5,3.1h28.1c4.9,0,8.4-1,10.7-3.1a10.2,10.2,0,0,0,3.4-7.9A10.7,10.7,0,0,0,757.1,279.3ZM727.6,79.4a19.6,19.6,0,1,0-19.5-19.6A19.6,19.6,0,0,0,727.6,79.4ZM980.1,279.3c-2.2-1.9-5.7-2.9-10.4-2.9h-3.3V166.7c0-10.6-3.3-21.1-10-31.2s-14-17.3-22.2-21.7a81.1,81.1,0,0,0-37.9-8.9,79.9,79.9,0,0,0-34.7,7.4c-9.2,4.4-19.5,12.1-30.6,22.8V111.2H805.9c-4.8,0-8.2,1-10.5,3.1a11,11,0,0,0,0,15.9c2.3,2.1,5.7,3.1,10.5,3.1h3.2V276.4h-3.2c-4.8,0-8.2,1-10.5,2.9a10.7,10.7,0,0,0-3.4,8,10.2,10.2,0,0,0,3.4,7.9c2.3,2.1,5.7,3.1,10.5,3.1h28.3c4.9,0,8.3-1,10.5-3.1a10.2,10.2,0,0,0,3.5-7.9,10.5,10.5,0,0,0-3.5-8c-2.2-1.9-5.7-2.9-10.5-2.9H831V167.9c15.4-18.1,27.4-29.6,35.7-34.1s18.1-6.8,29.4-6.8c14.7,0,26.6,4.2,35.3,12.4a40.2,40.2,0,0,1,13.1,30.3V276.4h-3c-5,0-8.4,1-10.7,2.9a10.4,10.4,0,0,0-3.4,8,10.2,10.2,0,0,0,3.4,7.9c2.2,2.1,5.7,3.1,10.7,3.1h28.2c4.8,0,8.2-1,10.4-3.1a10.2,10.2,0,0,0,3.5-7.9A10.5,10.5,0,0,0,980.1,279.3Zm216.6-165a10.4,10.4,0,0,1,3.4,8.1,10.1,10.1,0,0,1-3.4,7.8c-2.2,2.1-5.7,3.1-10.5,3.1H1183V308.5c0,12.1-2.6,23.1-7.8,32.6-3.5,6.4-9.3,13.1-17.4,19.8s-15.4,11.6-22,14.5-15.8,4.4-26.9,4.4h-50.2c-4.8,0-8.2-1-10.5-2.9a11.2,11.2,0,0,1,0-16.1c2.2-2.1,5.7-3.1,10.5-3.1l50.9.2a49.8,49.8,0,0,0,27.1-7.7c8-5.1,14.8-12.7,20.1-22.7,2.9-5.5,4.4-12.8,4.4-21.6V258.8c-18.9,23.3-42.9,35-71.5,35-24.8,0-46.5-9.3-64.5-27.7s-27.1-40.9-27.1-66.8,9.1-48.4,27.1-66.8,39.7-27.6,64.5-27.6c28.6,0,52.6,11.7,71.5,34.8V111.2h25C1191,111.2,1194.5,112.2,1196.7,114.3Zm-56.4,33.6c-13.8-13.9-30.5-20.9-49.7-20.9s-35.9,7.1-49.7,21-20.7,31.2-20.7,51.3,7,37.5,20.7,51.4,30.5,21,49.7,21,35.9-7,49.7-21,20.9-31.3,20.9-51.4S1154.1,161.8,1140.3,147.9Zm556.4,103V172.4c0-21-6.2-38.2-18.3-51.2-15.3-16.3-36.2-24.5-62.3-24.5a95.4,95.4,0,0,0-31.7,5.1,85.6,85.6,0,0,0-23.3,12.8V102.4h-43.3c-11,0-18.8,2.1-23.6,6.5a22.1,22.1,0,0,0-7.4,17.1,22.8,22.8,0,0,0,7.2,17.1c4.4,4.1,11,6.4,19.7,6.7v101c-10.5.2-17.3,1.3-20.9,3.5-7.3,4.8-11,11.6-11,20.2,0,7,2.4,12.8,7.3,17.2s12.6,6.6,23.7,6.6H1562c11,0,18.8-2.2,23.7-6.6a22.1,22.1,0,0,0,7.3-17c0-8.9-3.8-15.8-11.3-20.4-3.4-2.2-10.1-3.3-20.6-3.5V173.2c11.1-11.9,20.3-19.8,27.5-23.5s15.7-5.6,25.3-5.6c12.7,0,22.3,2.7,28.5,7.9,4.5,4,6.8,10.4,6.8,19.2v79.7c-8.6.3-15.2,2.5-19.6,6.5a22.5,22.5,0,0,0-7.2,17.1,22.2,22.2,0,0,0,7.4,17.2c4.8,4.4,12.6,6.6,23.6,6.6h39.1c11.1,0,18.8-2.2,23.7-6.6s7.3-10.1,7.3-17-2.4-12.9-7.2-17.3S1705.3,251.2,1696.7,250.9Zm-245.9,6.5a23,23,0,0,1,7.5,17.4,23.4,23.4,0,0,1-7.5,17.2c-4.6,4.2-11.1,6.4-19.1,6.4h-37.9V285.6a107.6,107.6,0,0,1-12.2,7.7c-14.2,7.6-31,11.4-49.9,11.4a114.1,114.1,0,0,1-55.5-14,101.9,101.9,0,0,1-40.1-39.9,108.1,108.1,0,0,1-14-53.1c0-29.5,10.7-55,31.8-75.9s47.1-31.4,77.6-31.4c23.5,0,44.4,6.3,62.3,18.7V67.6c-10-.2-17.1-2.4-21.7-6.5s-7.3-10.2-7.3-17.1,2.4-12.8,7.3-17.3,12.6-6.5,23.7-6.5h45.3V252.1A22.9,22.9,0,0,1,1450.8,257.4Zm-74.9-101.8c-12.2-11.9-26.7-17.7-44.4-17.7s-31.8,5.8-43.9,17.6-18,25.6-18,42.2,5.9,30.1,17.9,41.9,26.5,17.7,44,17.7,32.2-5.9,44.4-17.8,17.9-25.5,17.9-41.8S1388,167.5,1375.9,155.6ZM224.7,294.2a10.8,10.8,0,0,0-10.9-10.8H168.6c-15.3,0-27.1-3.4-34.9-9.9s-11.6-14.5-11.6-24.2v-116h72.1c4.8,0,8.2-1,10.5-3.1a10.4,10.4,0,0,0,3.4-7.8,10.8,10.8,0,0,0-3.4-8.1c-2.3-2.1-5.7-3.1-10.5-3.1H122.1V54.1c0-4.8-1-8.2-3.1-10.5a10.7,10.7,0,0,0-8-3.4,10.5,10.5,0,0,0-7.9,3.4c-2.1,2.3-3.1,5.7-3.1,10.5v57.1H63.9c-4.8,0-8.2,1-10.5,3.1a11,11,0,0,0,0,15.9c2.3,2.1,5.7,3.1,10.5,3.1H100v116c0,17.1,6.5,30.8,19.2,40.9s29.6,15.1,50.7,15.1h43.9a10.9,10.9,0,0,0,10.9-11.1ZM1950,274.6h0a23.7,23.7,0,0,1-23.6,23.7h-52.8V288.2c-15.6,7.8-34.9,14.4-55.6,14.4s-38.1-5.7-51.7-16.1c-15.8-12-24.4-29.1-24.4-48.2s8.6-37.8,23.7-51.7,37.2-22.5,60.6-22.5a207.9,207.9,0,0,1,45.3,5.3v-8.7c0-4.3-1.1-9-9-13.5s-18.5-6.7-29.7-6.7c-25.4,0-47.5,12.9-47.7,13a23.9,23.9,0,0,1-24.7-40.9c3.3-2.1,34.1-19.9,72.4-19.9,11.4,0,33.5,1.7,53.4,13s33.1,31.7,33.1,55v41.5h0V251h7.1A23.6,23.6,0,0,1,1950,274.6Zm-90.9-32.8c4.9-2.9,9.1-5.9,12.4-8.3V218.8a163,163,0,0,0-45.3-6.9c-14.5,0-23.3,5.3-28.2,9.8s-8.3,11-8.3,16.6c0,8.2,9.7,16.5,28.3,16.5C1833.6,254.8,1848.9,247.7,1859.1,241.8Z"/></svg>